<svg width="276" height="47" viewBox="0 0 276 47" fill="none" xmlns="http://www.w3.org/2000/svg">
<path d="M8.82 47C7.26 47 5.82 46.62 4.5 45.86C3.18 45.06 2.14 44.02 1.38 42.74C0.62 41.42 0.24 39.96 0.24 38.36V34.7H8.88V37.94C8.88 38.06 8.9 38.16 8.94 38.24C9.02 38.28 9.1 38.3 9.18 38.3H34.32C34.4 38.3 34.48 38.28 34.56 38.24C34.64 38.16 34.68 38.06 34.68 37.94V30.08C34.68 30 34.64 29.94 34.56 29.9C34.48 29.82 34.4 29.78 34.32 29.78H8.82C7.26 29.78 5.82 29.4 4.5 28.64C3.18 27.84 2.14 26.78 1.38 25.46C0.62 24.14 0.24 22.7 0.24 21.14V12.44C0.24 10.84 0.62 9.4 1.38 8.12C2.14 6.8 3.18 5.76 4.5 5C5.82 4.2 7.26 3.8 8.82 3.8H34.8C36.36 3.8 37.78 4.2 39.06 5C40.38 5.76 41.44 6.8 42.24 8.12C43.04 9.4 43.44 10.84 43.44 12.44V16.1H34.68V12.86C34.68 12.74 34.64 12.66 34.56 12.62C34.48 12.54 34.4 12.5 34.32 12.5H9.18C9.1 12.5 9.02 12.54 8.94 12.62C8.9 12.66 8.88 12.74 8.88 12.86V20.72C8.88 20.8 8.9 20.88 8.94 20.96C9.02 21 9.1 21.02 9.18 21.02H34.8C36.36 21.02 37.78 21.42 39.06 22.22C40.38 22.98 41.44 24.02 42.24 25.34C43.04 26.66 43.44 28.1 43.44 29.66V38.36C43.44 39.96 43.04 41.42 42.24 42.74C41.44 44.02 40.38 45.06 39.06 45.86C37.78 46.62 36.36 47 34.8 47H8.82ZM49.8689 47V0.799998H58.3889V12.2H76.6889C78.2089 12.2 79.6089 12.6 80.8889 13.4C82.1689 14.16 83.1889 15.18 83.9489 16.46C84.7489 17.74 85.1489 19.14 85.1489 20.66V47H76.6289V21.08C76.6289 21 76.5889 20.92 76.5089 20.84C76.4689 20.76 76.3889 20.72 76.2689 20.72H58.7489C58.6689 20.72 58.5889 20.76 58.5089 20.84C58.4289 20.92 58.3889 21 58.3889 21.08V47H49.8689ZM89.8856 47V12.2H98.4056V47H89.8856ZM89.8856 9.38V0.799998H98.4056V9.38H89.8856ZM131.227 47C129.627 47 128.167 46.62 126.847 45.86C125.567 45.06 124.527 44.02 123.727 42.74C122.967 41.42 122.587 39.96 122.587 38.36V12.44C122.587 10.84 122.967 9.4 123.727 8.12C124.527 6.8 125.567 5.76 126.847 5C128.167 4.2 129.627 3.8 131.227 3.8H165.667V12.5H133.267C132.627 12.5 132.127 12.68 131.767 13.04C131.407 13.36 131.227 13.86 131.227 14.54V36.26C131.227 36.9 131.407 37.4 131.767 37.76C132.127 38.12 132.627 38.3 133.267 38.3H165.667V47H131.227ZM171.803 47V0.799998H180.323V12.2H198.623C200.143 12.2 201.543 12.6 202.823 13.4C204.103 14.16 205.123 15.18 205.883 16.46C206.683 17.74 207.083 19.14 207.083 20.66V47H198.562V21.08C198.562 21 198.523 20.92 198.443 20.84C198.403 20.76 198.323 20.72 198.203 20.72H180.683C180.603 20.72 180.523 20.76 180.443 20.84C180.363 20.92 180.323 21 180.323 21.08V47H171.803ZM220.279 47C218.759 47 217.339 46.62 216.019 45.86C214.739 45.06 213.719 44.02 212.959 42.74C212.199 41.46 211.819 40.06 211.819 38.54V25.28H238.579V21.08C238.579 21 238.539 20.92 238.459 20.84C238.379 20.76 238.299 20.72 238.219 20.72H211.819V12.2H238.639C240.199 12.2 241.619 12.6 242.899 13.4C244.179 14.16 245.199 15.18 245.959 16.46C246.719 17.74 247.099 19.14 247.099 20.66V47H220.279ZM220.699 38.48H238.579V32.9H220.339V38.12C220.339 38.2 220.379 38.28 220.459 38.36C220.539 38.44 220.619 38.48 220.699 38.48ZM262.059 47C260.499 47 259.079 46.62 257.799 45.86C256.519 45.06 255.479 44.02 254.679 42.74C253.919 41.46 253.539 40.06 253.539 38.54V1.7H262.059V12.2H275.319V20.72H262.059V38.12C262.059 38.2 262.099 38.28 262.179 38.36C262.259 38.44 262.339 38.48 262.419 38.48H275.319V47H262.059Z" fill="#00463E"/>
</svg>
