<svg width="281" height="163" viewBox="0 0 281 163" fill="none" xmlns="http://www.w3.org/2000/svg">
<path d="M11.82 149C10.26 149 8.82 148.62 7.5 147.86C6.18 147.06 5.14 146.02 4.38 144.74C3.62 143.42 3.24 141.96 3.24 140.36V136.7H11.88V139.94C11.88 140.06 11.9 140.16 11.94 140.24C12.02 140.28 12.1 140.3 12.18 140.3H37.32C37.4 140.3 37.48 140.28 37.56 140.24C37.64 140.16 37.68 140.06 37.68 139.94V132.08C37.68 132 37.64 131.94 37.56 131.9C37.48 131.82 37.4 131.78 37.32 131.78H11.82C10.26 131.78 8.82 131.4 7.5 130.64C6.18 129.84 5.14 128.78 4.38 127.46C3.62 126.14 3.24 124.7 3.24 123.14V114.44C3.24 112.84 3.62 111.4 4.38 110.12C5.14 108.8 6.18 107.76 7.5 107C8.82 106.2 10.26 105.8 11.82 105.8H37.8C39.36 105.8 40.78 106.2 42.06 107C43.38 107.76 44.44 108.8 45.24 110.12C46.04 111.4 46.44 112.84 46.44 114.44V118.1H37.68V114.86C37.68 114.74 37.64 114.66 37.56 114.62C37.48 114.54 37.4 114.5 37.32 114.5H12.18C12.1 114.5 12.02 114.54 11.94 114.62C11.9 114.66 11.88 114.74 11.88 114.86V122.72C11.88 122.8 11.9 122.88 11.94 122.96C12.02 123 12.1 123.02 12.18 123.02H37.8C39.36 123.02 40.78 123.42 42.06 124.22C43.38 124.98 44.44 126.02 45.24 127.34C46.04 128.66 46.44 130.1 46.44 131.66V140.36C46.44 141.96 46.04 143.42 45.24 144.74C44.44 146.02 43.38 147.06 42.06 147.86C40.78 148.62 39.36 149 37.8 149H11.82ZM52.8689 149V102.8H61.3889V114.2H79.6889C81.2089 114.2 82.6089 114.6 83.8889 115.4C85.1689 116.16 86.1889 117.18 86.9489 118.46C87.7489 119.74 88.1489 121.14 88.1489 122.66V149H79.6289V123.08C79.6289 123 79.5889 122.92 79.5089 122.84C79.4689 122.76 79.3889 122.72 79.2689 122.72H61.7489C61.6689 122.72 61.5889 122.76 61.5089 122.84C61.4289 122.92 61.3889 123 61.3889 123.08V149H52.8689ZM92.8856 149V114.2H101.406V149H92.8856ZM92.8856 111.38V102.8H101.406V111.38H92.8856ZM134.227 149C132.627 149 131.167 148.62 129.847 147.86C128.567 147.06 127.527 146.02 126.727 144.74C125.967 143.42 125.587 141.96 125.587 140.36V114.44C125.587 112.84 125.967 111.4 126.727 110.12C127.527 108.8 128.567 107.76 129.847 107C131.167 106.2 132.627 105.8 134.227 105.8H168.667V114.5H136.267C135.627 114.5 135.127 114.68 134.767 115.04C134.407 115.36 134.227 115.86 134.227 116.54V138.26C134.227 138.9 134.407 139.4 134.767 139.76C135.127 140.12 135.627 140.3 136.267 140.3H168.667V149H134.227ZM174.803 149V102.8H183.323V114.2H201.623C203.143 114.2 204.543 114.6 205.823 115.4C207.103 116.16 208.123 117.18 208.883 118.46C209.683 119.74 210.083 121.14 210.083 122.66V149H201.562V123.08C201.562 123 201.523 122.92 201.443 122.84C201.403 122.76 201.323 122.72 201.203 122.72H183.683C183.603 122.72 183.523 122.76 183.443 122.84C183.363 122.92 183.323 123 183.323 123.08V149H174.803ZM223.279 149C221.759 149 220.339 148.62 219.019 147.86C217.739 147.06 216.719 146.02 215.959 144.74C215.199 143.46 214.819 142.06 214.819 140.54V127.28H241.579V123.08C241.579 123 241.539 122.92 241.459 122.84C241.379 122.76 241.299 122.72 241.219 122.72H214.819V114.2H241.639C243.199 114.2 244.619 114.6 245.899 115.4C247.179 116.16 248.199 117.18 248.959 118.46C249.719 119.74 250.099 121.14 250.099 122.66V149H223.279ZM223.699 140.48H241.579V134.9H223.339V140.12C223.339 140.2 223.379 140.28 223.459 140.36C223.539 140.44 223.619 140.48 223.699 140.48ZM265.059 149C263.499 149 262.079 148.62 260.799 147.86C259.519 147.06 258.479 146.02 257.679 144.74C256.919 143.46 256.539 142.06 256.539 140.54V103.7H265.059V114.2H278.319V122.72H265.059V140.12C265.059 140.2 265.099 140.28 265.179 140.36C265.259 140.44 265.339 140.48 265.419 140.48H278.319V149H265.059Z" fill="#00463E"/>
<path d="M104 36.5C104 16.3416 120.342 0 140.5 0H177V36.5C177 56.6584 160.658 73 140.5 73V73C120.342 73 104 56.6584 104 36.5V36.5Z" fill="#01FFE1"/>
</svg>
